<svg id="woman" xmlns="http://www.w3.org/2000/svg" width="36.833" height="67.713" viewBox="0 0 36.833 67.713">
  <ellipse id="Ellipse_8" data-name="Ellipse 8" cx="7.406" cy="7.406" rx="7.406" ry="7.406" transform="translate(10.944)"/>
  <path id="Path_30739" data-name="Path 30739" d="M153.718,147.816l-1.366-4.551v-.015l-2.97-9.9h-.007l-.332-1.118a5.934,5.934,0,0,0-5.687-4.243h-15.87a5.93,5.93,0,0,0-5.687,4.243l-.332,1.118h-.008l-2.97,9.9v.015l-1.371,4.551a2.685,2.685,0,0,0,1.662,3.325,2.645,2.645,0,0,0,3.386-1.743l3.383-11.275h0l.287-.956a1.058,1.058,0,0,1,2.054.347,1.028,1.028,0,0,1-.022.213h0l-5.783,19.281a2.116,2.116,0,0,0,2.026,2.724h3.835V174.9c0,2.177,1.393,3.876,3.174,3.876s3.174-1.7,3.174-3.876V159.732h2.116V174.9c0,2.177,1.393,3.876,3.174,3.876s3.174-1.7,3.174-3.876V159.732h3.968a2.116,2.116,0,0,0,2.027-2.724l-5.785-19.284a.994.994,0,0,1-.021-.21,1.058,1.058,0,0,1,2.055-.348l.287.956h0L148.67,149.4a2.645,2.645,0,0,0,3.384,1.739A2.679,2.679,0,0,0,153.718,147.816Z" transform="translate(-117.001 -111.063)"/>
</svg>
