<svg id="man" xmlns="http://www.w3.org/2000/svg" width="29.625" height="67.994" viewBox="0 0 29.625 67.994">
  <ellipse id="Ellipse_7" data-name="Ellipse 7" cx="7.41" cy="7.41" rx="7.41" ry="7.41" transform="translate(7.845 0)"/>
  <path id="Path_30738" data-name="Path 30738" d="M165.16,128h-12.7A8.489,8.489,0,0,0,144,136.464v14.22a2.687,2.687,0,0,0,2.549,2.707,2.645,2.645,0,0,0,2.742-2.644v-13.19a1.082,1.082,0,0,1,.988-1.091,1.058,1.058,0,0,1,1.128,1.058v38.218a3.042,3.042,0,0,0,3.042,3.042h0a3.042,3.042,0,0,0,3.042-3.042V156.876a1.354,1.354,0,0,1,1.234-1.367,1.323,1.323,0,0,1,1.411,1.323v18.912a3.042,3.042,0,0,0,3.042,3.042h0a3.042,3.042,0,0,0,3.042-3.042V137.558a1.082,1.082,0,0,1,.988-1.091,1.058,1.058,0,0,1,1.128,1.058v13.162a2.687,2.687,0,0,0,2.549,2.707,2.645,2.645,0,0,0,2.742-2.646V136.464A8.489,8.489,0,0,0,165.16,128Z" transform="translate(-144 -110.791)"/>
</svg>
